solid RaspberryPi_SDCard_retainer
facet normal 1.32185928869433e-16 1.0 -4.29286236188391e-16
outer loop
vertex 0.0 5.40000150066316 -7.57727505869062e-16
vertex -8.0 5.40000150066316 -1.50000000000002
vertex -8.0 5.40000150066316 -7.57727505869062e-16
endloop
endfacet
facet normal 1.32185928869433e-16 1.0 -4.29286236188391e-16
outer loop
vertex -8.0 5.40000150066316 -1.50000000000002
vertex 0.0 5.40000150066316 -7.57727505869062e-16
vertex 0.0 5.40000150066316 -1.50000000000002
endloop
endfacet
facet normal 1.0 -1.32185928869433e-16 2.34997206878988e-16
outer loop
vertex 0.0 -3.52495810318487e-16 -1.50000000000002
vertex 0.0 5.40000150066316 -7.57727505869062e-16
vertex 0.0 0.0 6.43929354282526e-16
endloop
endfacet
facet normal 1.0 -1.32185928869433e-16 2.34997206878988e-16
outer loop
vertex 0.0 5.40000150066316 -7.57727505869062e-16
vertex 0.0 -3.52495810318487e-16 -1.50000000000002
vertex 0.0 5.40000150066316 -1.50000000000002
endloop
endfacet
facet normal 2.07088827153475e-32 4.29286236188391e-16 1.0
outer loop
vertex 0.0 5.40000150066316 -7.57727505869062e-16
vertex -8.0 0.0 6.43929354282526e-16
vertex 0.0 0.0 6.43929354282526e-16
endloop
endfacet
facet normal 2.07088827153475e-32 4.29286236188391e-16 1.0
outer loop
vertex -8.0 0.0 6.43929354282526e-16
vertex 0.0 5.40000150066316 -7.57727505869062e-16
vertex -8.0 5.40000150066316 -7.57727505869062e-16
endloop
endfacet
facet normal -4.14177654306951e-32 -4.29286236188391e-16 -1.0
outer loop
vertex -8.0 5.40000150066316 -1.50000000000002
vertex 0.0 -3.52495810318487e-16 -1.50000000000002
vertex -8.0 -3.52495810318487e-16 -1.50000000000002
endloop
endfacet
facet normal -4.14177654306951e-32 -4.29286236188391e-16 -1.0
outer loop
vertex 0.0 -3.52495810318487e-16 -1.50000000000002
vertex -8.0 5.40000150066316 -1.50000000000002
vertex 0.0 5.40000150066316 -1.50000000000002
endloop
endfacet
facet normal -1.0 1.32185928869433e-16 -2.56822758084038e-32
outer loop
vertex -8.0 5.40000150066316 -7.57727505869062e-16
vertex -8.0 -3.52495810318487e-16 -1.50000000000002
vertex -8.0 0.0 6.43929354282526e-16
endloop
endfacet
facet normal -1.0 1.32185928869433e-16 -2.56822758084038e-32
outer loop
vertex -8.0 -3.52495810318487e-16 -1.50000000000002
vertex -8.0 5.40000150066316 -7.57727505869062e-16
vertex -8.0 5.40000150066316 -1.50000000000002
endloop
endfacet
facet normal -1.32185928869433e-16 -1.0 4.29286236188391e-16
outer loop
vertex 0.0 -3.52495810318487e-16 -1.50000000000002
vertex -8.0 0.0 6.43929354282526e-16
vertex -8.0 -3.52495810318487e-16 -1.50000000000002
endloop
endfacet
facet normal -1.32185928869433e-16 -1.0 4.29286236188391e-16
outer loop
vertex -8.0 0.0 6.43929354282526e-16
vertex 0.0 -3.52495810318487e-16 -1.50000000000002
vertex 0.0 0.0 6.43929354282526e-16
endloop
endfacet
facet normal 1.32185928869433e-16 1.0 -4.29286236188391e-16
outer loop
vertex 0.0 5.40000150066311 31.23
vertex -8.0 5.40000150066311 29.73
vertex -8.0 5.40000150066311 31.23
endloop
endfacet
facet normal 1.32185928869433e-16 1.0 -4.29286236188391e-16
outer loop
vertex -8.0 5.40000150066311 29.73
vertex 0.0 5.40000150066311 31.23
vertex 0.0 5.40000150066311 29.73
endloop
endfacet
facet normal 1.0 -1.32185928869433e-16 2.34997206878988e-16
outer loop
vertex 0.0 -4.54719595310848e-14 29.73
vertex 0.0 5.40000150066311 31.23
vertex 0.0 -4.51194637207664e-14 31.23
endloop
endfacet
facet normal 1.0 -1.32185928869433e-16 2.34997206878988e-16
outer loop
vertex 0.0 5.40000150066311 31.23
vertex 0.0 -4.54719595310848e-14 29.73
vertex 0.0 5.40000150066311 29.73
endloop
endfacet
facet normal 2.07088827153475e-32 4.29286236188391e-16 1.0
outer loop
vertex 0.0 5.40000150066311 31.23
vertex -8.0 -4.51194637207664e-14 31.23
vertex 0.0 -4.51194637207664e-14 31.23
endloop
endfacet
facet normal 2.07088827153475e-32 4.29286236188391e-16 1.0
outer loop
vertex -8.0 -4.51194637207664e-14 31.23
vertex 0.0 5.40000150066311 31.23
vertex -8.0 5.40000150066311 31.23
endloop
endfacet
facet normal -4.14177654306951e-32 -4.29286236188391e-16 -1.0
outer loop
vertex -8.0 5.40000150066311 29.73
vertex 0.0 -4.54719595310848e-14 29.73
vertex -8.0 -4.54719595310848e-14 29.73
endloop
endfacet
facet normal -4.14177654306951e-32 -4.29286236188391e-16 -1.0
outer loop
vertex 0.0 -4.54719595310848e-14 29.73
vertex -8.0 5.40000150066311 29.73
vertex 0.0 5.40000150066311 29.73
endloop
endfacet
facet normal -1.0 1.32185928869433e-16 -2.56822758084038e-32
outer loop
vertex -8.0 5.40000150066311 31.23
vertex -8.0 -4.54719595310848e-14 29.73
vertex -8.0 -4.51194637207664e-14 31.23
endloop
endfacet
facet normal -1.0 1.32185928869433e-16 -2.56822758084038e-32
outer loop
vertex -8.0 -4.54719595310848e-14 29.73
vertex -8.0 5.40000150066311 31.23
vertex -8.0 5.40000150066311 29.73
endloop
endfacet
facet normal -1.32185928869433e-16 -1.0 4.29286236188391e-16
outer loop
vertex 0.0 -4.54719595310848e-14 29.73
vertex -8.0 -4.51194637207664e-14 31.23
vertex -8.0 -4.54719595310848e-14 29.73
endloop
endfacet
facet normal -1.32185928869433e-16 -1.0 4.29286236188391e-16
outer loop
vertex -8.0 -4.51194637207664e-14 31.23
vertex 0.0 -4.54719595310848e-14 29.73
vertex 0.0 -4.51194637207664e-14 31.23
endloop
endfacet
facet normal 0.0 -1.94289029309402e-16 -1.0
outer loop
vertex 0.0 5.40000150066319 -1.49999999999992
vertex 1.5 -1.49999999999994 -1.49999999999992
vertex 0.0 -1.49999999999994 -1.49999999999992
endloop
endfacet
facet normal 0.0 -1.94289029309402e-16 -1.0
outer loop
vertex 1.5 -1.49999999999994 -1.49999999999992
vertex 0.0 5.40000150066319 -1.49999999999992
vertex 1.5 5.40000150066319 -1.49999999999992
endloop
endfacet
facet normal 0.0 1.94289029309402e-16 1.0
outer loop
vertex 1.5 5.4000015006632 31.23
vertex 0.0 -1.49999999999988 31.23
vertex 1.5 -1.49999999999988 31.23
endloop
endfacet
facet normal 0.0 1.94289029309402e-16 1.0
outer loop
vertex 0.0 -1.49999999999988 31.23
vertex 1.5 5.4000015006632 31.23
vertex 0.0 5.4000015006632 31.23
endloop
endfacet
facet normal 0.0 1.0 -1.94289029309402e-16
outer loop
vertex 1.5 5.4000015006632 31.23
vertex 0.0 5.40000150066319 -1.49999999999992
vertex 0.0 5.4000015006632 31.23
endloop
endfacet
facet normal 0.0 1.0 -1.94289029309402e-16
outer loop
vertex 0.0 5.40000150066319 -1.49999999999992
vertex 1.5 5.4000015006632 31.23
vertex 1.5 5.40000150066319 -1.49999999999992
endloop
endfacet
facet normal -1.0 0.0 0.0
outer loop
vertex 0.0 5.4000015006632 31.23
vertex 0.0 -1.49999999999994 -1.49999999999992
vertex 0.0 -1.49999999999988 31.23
endloop
endfacet
facet normal -1.0 0.0 0.0
outer loop
vertex 0.0 -1.49999999999994 -1.49999999999992
vertex 0.0 5.4000015006632 31.23
vertex 0.0 5.40000150066319 -1.49999999999992
endloop
endfacet
facet normal 0.0 -1.0 1.94289029309402e-16
outer loop
vertex 1.5 -1.49999999999994 -1.49999999999992
vertex 0.0 -1.49999999999988 31.23
vertex 0.0 -1.49999999999994 -1.49999999999992
endloop
endfacet
facet normal 0.0 -1.0 1.94289029309402e-16
outer loop
vertex 0.0 -1.49999999999988 31.23
vertex 1.5 -1.49999999999994 -1.49999999999992
vertex 1.5 -1.49999999999988 31.23
endloop
endfacet
facet normal 1.0 0.0 0.0
outer loop
vertex 1.5 -1.49999999999994 -1.49999999999992
vertex 1.5 5.4000015006632 31.23
vertex 1.5 -1.49999999999988 31.23
endloop
endfacet
facet normal 1.0 0.0 0.0
outer loop
vertex 1.5 5.4000015006632 31.23
vertex 1.5 -1.49999999999994 -1.49999999999992
vertex 1.5 5.40000150066319 -1.49999999999992
endloop
endfacet
facet normal 0.0 -1.0 0.0
outer loop
vertex -50.36 5.40000150066315 -1.49999999999994
vertex -48.3101319722187 5.40000150066315 1.06142893720606
vertex -50.36 5.40000150066315 6.80900487471818
endloop
endfacet
facet normal 0.0 -1.0 0.0
outer loop
vertex -48.3101319722187 5.40000150066315 1.06142893720606
vertex -50.36 5.40000150066315 -1.49999999999994
vertex 1.5 5.40000150066315 -1.49999999999994
endloop
endfacet
facet normal 0.0 -1.0 0.0
outer loop
vertex -48.3101319722187 5.40000150066315 1.06142893720606
vertex 1.5 5.40000150066315 -1.49999999999994
vertex -42.3101319722226 5.40000150066315 1.06142893720606
endloop
endfacet
facet normal 0.0 -1.0 0.0
outer loop
vertex -42.3101319722226 5.40000150066315 1.06142893720606
vertex 1.5 5.40000150066315 -1.49999999999994
vertex -37.0 5.40000150066315 1.27894867082843
endloop
endfacet
facet normal 0.0 -1.0 0.0
outer loop
vertex -42.3101319722226 5.40000150066315 1.06142893720606
vertex -37.0 5.40000150066315 1.27894867082843
vertex -42.3101319722226 5.40000150066315 4.06142889250111
endloop
endfacet
facet normal 0.0 -1.0 0.0
outer loop
vertex -37.0 5.40000150066315 1.27894867082843
vertex 1.5 5.40000150066315 -1.49999999999994
vertex -27.0837377052492 5.40000150066315 1.27894867082843
endloop
endfacet
facet normal 0.0 -1.0 0.0
outer loop
vertex -27.0837377052492 5.40000150066315 1.27894867082843
vertex 1.5 5.40000150066315 -1.49999999999994
vertex -27.0837377052492 5.40000150066316 27.6074730238338
endloop
endfacet
facet normal 0.0 -1.0 0.0
outer loop
vertex -27.0837377052492 5.40000150066316 27.6074730238338
vertex 1.5 5.40000150066315 -1.49999999999994
vertex -24.1550011933323 5.40000150066316 27.6074730238338
endloop
endfacet
facet normal 0.0 -1.0 0.0
outer loop
vertex -24.1550011933323 5.40000150066316 27.6074730238338
vertex 1.5 5.40000150066315 -1.49999999999994
vertex -22.3437377052492 5.40000150066316 29.4187365119169
endloop
endfacet
facet normal 0.0 -1.0 0.0
outer loop
vertex -22.3437377052492 5.40000150066316 29.4187365119169
vertex 1.5 5.40000150066315 -1.49999999999994
vertex -22.3437377052492 5.40000150066316 31.2300000000001
endloop
endfacet
facet normal 0.0 -1.0 0.0
outer loop
vertex -22.3437377052492 5.40000150066316 31.2300000000001
vertex 1.5 5.40000150066315 -1.49999999999994
vertex 1.5 5.40000150066316 31.2300000000001
endloop
endfacet
facet normal 0.0 -1.0 0.0
outer loop
vertex -50.36 5.40000150066315 6.80900487471818
vertex -48.3101319722187 5.40000150066315 4.06142889250111
vertex -37.0 5.40000150066315 6.80900487471818
endloop
endfacet
facet normal 0.0 -1.0 0.0
outer loop
vertex -48.3101319722187 5.40000150066315 4.06142889250111
vertex -50.36 5.40000150066315 6.80900487471818
vertex -48.3101319722187 5.40000150066315 1.06142893720606
endloop
endfacet
facet normal 0.0 -1.0 0.0
outer loop
vertex -37.0 5.40000150066315 6.80900487471818
vertex -48.3101319722187 5.40000150066315 4.06142889250111
vertex -42.3101319722226 5.40000150066315 4.06142889250111
endloop
endfacet
facet normal 0.0 -1.0 0.0
outer loop
vertex -37.0 5.40000150066315 6.80900487471818
vertex -42.3101319722226 5.40000150066315 4.06142889250111
vertex -37.0 5.40000150066315 1.27894867082843
endloop
endfacet
facet normal -1.0 0.0 0.0
outer loop
vertex -27.0837377052492 8.40000150066315 1.27894867082843
vertex -27.0837377052492 5.40000150066316 27.6074730238338
vertex -27.0837377052492 8.40000150066315 27.6074730238338
endloop
endfacet
facet normal -1.0 0.0 0.0
outer loop
vertex -27.0837377052492 5.40000150066316 27.6074730238338
vertex -27.0837377052492 8.40000150066315 1.27894867082843
vertex -27.0837377052492 5.40000150066315 1.27894867082843
endloop
endfacet
facet normal -2.71534070449561e-32 1.6246119162406e-16 1.0
outer loop
vertex -27.0837377052492 8.40000150066315 1.27894867082843
vertex -37.0 5.40000150066315 1.27894867082843
vertex -27.0837377052492 5.40000150066315 1.27894867082843
endloop
endfacet
facet normal -2.71534070449561e-32 1.6246119162406e-16 1.0
outer loop
vertex -37.0 5.40000150066315 1.27894867082843
vertex -27.0837377052492 8.40000150066315 1.27894867082843
vertex -37.0 8.40000150066315 1.27894867082843
endloop
endfacet
facet normal 1.0 2.22063213458149e-17 -3.54548108039789e-32
outer loop
vertex -37.0 5.40000150066315 1.27894867082843
vertex -37.0 8.40000150066315 6.80900487471818
vertex -37.0 5.40000150066315 6.80900487471818
endloop
endfacet
facet normal 1.0 2.22063213458149e-17 -3.54548108039789e-32
outer loop
vertex -37.0 8.40000150066315 6.80900487471818
vertex -37.0 5.40000150066315 1.27894867082843
vertex -37.0 8.40000150066315 1.27894867082843
endloop
endfacet
facet normal 1.0 2.22063213458149e-17 -3.6076654274279e-33
outer loop
vertex -48.3101319722187 5.40000150066315 1.06142893720606
vertex -48.3101319722187 8.40000150066315 4.06142889250111
vertex -48.3101319722187 5.40000150066315 4.06142889250111
endloop
endfacet
facet normal 1.0 2.22063213458149e-17 -3.6076654274279e-33
outer loop
vertex -48.3101319722187 8.40000150066315 4.06142889250111
vertex -48.3101319722187 5.40000150066315 1.06142893720606
vertex -48.3101319722187 8.40000150066315 1.06142893720606
endloop
endfacet
facet normal -3.79879209962378e-34 -1.6246119162406e-16 -1.0
outer loop
vertex -48.3101319722187 8.40000150066315 4.06142889250111
vertex -42.3101319722226 5.40000150066315 4.06142889250111
vertex -48.3101319722187 5.40000150066315 4.06142889250111
endloop
endfacet
facet normal -3.79879209962378e-34 -1.6246119162406e-16 -1.0
outer loop
vertex -42.3101319722226 5.40000150066315 4.06142889250111
vertex -48.3101319722187 8.40000150066315 4.06142889250111
vertex -42.3101319722226 8.40000150066315 4.06142889250111
endloop
endfacet
facet normal -1.0 -2.22063213458149e-17 4.1377498156994e-33
outer loop
vertex -42.3101319722226 8.40000150066315 1.06142893720606
vertex -42.3101319722226 5.40000150066315 4.06142889250111
vertex -42.3101319722226 8.40000150066315 4.06142889250111
endloop
endfacet
facet normal -1.0 -2.22063213458149e-17 4.1377498156994e-33
outer loop
vertex -42.3101319722226 5.40000150066315 4.06142889250111
vertex -42.3101319722226 8.40000150066315 1.06142893720606
vertex -42.3101319722226 5.40000150066315 1.06142893720606
endloop
endfacet
facet normal 0.0 1.6246119162406e-16 1.0
outer loop
vertex -37.0 8.40000150066315 6.80900487471818
vertex -50.36 5.40000150066315 6.80900487471818
vertex -37.0 5.40000150066315 6.80900487471818
endloop
endfacet
facet normal 0.0 1.6246119162406e-16 1.0
outer loop
vertex -50.36 5.40000150066315 6.80900487471818
vertex -37.0 8.40000150066315 6.80900487471818
vertex -50.36 8.40000150066315 6.80900487471818
endloop
endfacet
facet normal -1.0 -2.22063213458149e-17 4.31444461881103e-33
outer loop
vertex -50.36 8.40000150066315 -1.49999999999994
vertex -50.36 5.40000150066315 6.80900487471818
vertex -50.36 8.40000150066315 6.80900487471818
endloop
endfacet
facet normal -1.0 -2.22063213458149e-17 4.31444461881103e-33
outer loop
vertex -50.36 5.40000150066315 6.80900487471818
vertex -50.36 8.40000150066315 -1.49999999999994
vertex -50.36 5.40000150066315 -1.49999999999994
endloop
endfacet
facet normal 0.0 1.6246119162406e-16 1.0
outer loop
vertex -42.3101319722226 8.40000150066315 1.06142893720606
vertex -48.3101319722187 5.40000150066315 1.06142893720606
vertex -42.3101319722226 5.40000150066315 1.06142893720606
endloop
endfacet
facet normal 0.0 1.6246119162406e-16 1.0
outer loop
vertex -48.3101319722187 5.40000150066315 1.06142893720606
vertex -42.3101319722226 8.40000150066315 1.06142893720606
vertex -48.3101319722187 8.40000150066315 1.06142893720606
endloop
endfacet
facet normal -1.19899306423374e-17 9.71445146547027e-17 1.0
outer loop
vertex 1.5 8.40000150066315 31.2300000000001
vertex -22.3437377052492 5.40000150066316 31.2300000000001
vertex 1.5 5.40000150066316 31.2300000000001
endloop
endfacet
facet normal -1.19899306423374e-17 9.71445146547027e-17 1.0
outer loop
vertex -22.3437377052492 5.40000150066316 31.2300000000001
vertex 1.5 8.40000150066315 31.2300000000001
vertex -22.3437377052492 8.40000150066315 31.2300000000001
endloop
endfacet
facet normal 0.0 1.0 0.0
outer loop
vertex -50.36 8.40000150066315 6.80900487471818
vertex -48.3101319722187 8.40000150066315 4.06142889250111
vertex -50.36 8.40000150066315 -1.49999999999994
endloop
endfacet
facet normal 0.0 1.0 0.0
outer loop
vertex -48.3101319722187 8.40000150066315 4.06142889250111
vertex -50.36 8.40000150066315 6.80900487471818
vertex -37.0 8.40000150066315 6.80900487471818
endloop
endfacet
facet normal 0.0 1.0 0.0
outer loop
vertex -48.3101319722187 8.40000150066315 4.06142889250111
vertex -37.0 8.40000150066315 6.80900487471818
vertex -42.3101319722226 8.40000150066315 4.06142889250111
endloop
endfacet
facet normal 0.0 1.0 0.0
outer loop
vertex -42.3101319722226 8.40000150066315 4.06142889250111
vertex -37.0 8.40000150066315 6.80900487471818
vertex -42.3101319722226 8.40000150066315 1.06142893720606
endloop
endfacet
facet normal 0.0 1.0 0.0
outer loop
vertex -24.1550011933323 8.40000150066315 27.6074730238338
vertex -27.0837377052492 8.40000150066315 1.27894867082843
vertex -27.0837377052492 8.40000150066315 27.6074730238338
endloop
endfacet
facet normal 0.0 1.0 0.0
outer loop
vertex 1.5 8.40000150066315 31.2300000000001
vertex -22.3437377052492 8.40000150066315 29.4187365119169
vertex -22.3437377052492 8.40000150066315 31.2300000000001
endloop
endfacet
facet normal 0.0 1.0 0.0
outer loop
vertex -50.36 8.40000150066315 -1.49999999999994
vertex -48.3101319722187 8.40000150066315 1.06142893720606
vertex 1.5 8.40000150066315 -1.49999999999994
endloop
endfacet
facet normal 0.0 1.0 0.0
outer loop
vertex -48.3101319722187 8.40000150066315 1.06142893720606
vertex -50.36 8.40000150066315 -1.49999999999994
vertex -48.3101319722187 8.40000150066315 4.06142889250111
endloop
endfacet
facet normal 0.0 1.0 0.0
outer loop
vertex 1.5 8.40000150066315 -1.49999999999994
vertex -48.3101319722187 8.40000150066315 1.06142893720606
vertex -42.3101319722226 8.40000150066315 1.06142893720606
endloop
endfacet
facet normal 0.0 1.0 0.0
outer loop
vertex 1.5 8.40000150066315 -1.49999999999994
vertex -42.3101319722226 8.40000150066315 1.06142893720606
vertex -37.0 8.40000150066315 1.27894867082843
endloop
endfacet
facet normal 0.0 1.0 0.0
outer loop
vertex -37.0 8.40000150066315 1.27894867082843
vertex -42.3101319722226 8.40000150066315 1.06142893720606
vertex -37.0 8.40000150066315 6.80900487471818
endloop
endfacet
facet normal 0.0 1.0 0.0
outer loop
vertex 1.5 8.40000150066315 -1.49999999999994
vertex -37.0 8.40000150066315 1.27894867082843
vertex -27.0837377052492 8.40000150066315 1.27894867082843
endloop
endfacet
facet normal 0.0 1.0 0.0
outer loop
vertex 1.5 8.40000150066315 -1.49999999999994
vertex -27.0837377052492 8.40000150066315 1.27894867082843
vertex -24.1550011933323 8.40000150066315 27.6074730238338
endloop
endfacet
facet normal 0.0 1.0 0.0
outer loop
vertex 1.5 8.40000150066315 -1.49999999999994
vertex -24.1550011933323 8.40000150066315 27.6074730238338
vertex -22.3437377052492 8.40000150066315 29.4187365119169
endloop
endfacet
facet normal 0.0 1.0 0.0
outer loop
vertex 1.5 8.40000150066315 -1.49999999999994
vertex -22.3437377052492 8.40000150066315 29.4187365119169
vertex 1.5 8.40000150066315 31.2300000000001
endloop
endfacet
facet normal 1.0 2.22063213458149e-17 -4.31444461881103e-33
outer loop
vertex 1.5 5.40000150066315 -1.49999999999994
vertex 1.5 8.40000150066315 31.2300000000001
vertex 1.5 5.40000150066316 31.2300000000001
endloop
endfacet
facet normal 1.0 2.22063213458149e-17 -4.31444461881103e-33
outer loop
vertex 1.5 8.40000150066315 31.2300000000001
vertex 1.5 5.40000150066315 -1.49999999999994
vertex 1.5 8.40000150066315 -1.49999999999994
endloop
endfacet
facet normal 0.0 -1.6246119162406e-16 -1.0
outer loop
vertex -50.36 8.40000150066315 -1.49999999999994
vertex 1.5 5.40000150066315 -1.49999999999994
vertex -50.36 5.40000150066315 -1.49999999999994
endloop
endfacet
facet normal 0.0 -1.6246119162406e-16 -1.0
outer loop
vertex 1.5 5.40000150066315 -1.49999999999994
vertex -50.36 8.40000150066315 -1.49999999999994
vertex 1.5 8.40000150066315 -1.49999999999994
endloop
endfacet
facet normal -1.0 0.0 -3.89226429658264e-16
outer loop
vertex -22.3437377052492 8.40000150066315 29.4187365119169
vertex -22.3437377052492 5.40000150066316 31.2300000000001
vertex -22.3437377052492 8.40000150066315 31.2300000000001
endloop
endfacet
facet normal -1.0 0.0 -3.89226429658264e-16
outer loop
vertex -22.3437377052492 5.40000150066316 31.2300000000001
vertex -22.3437377052492 8.40000150066315 29.4187365119169
vertex -22.3437377052492 5.40000150066316 29.4187365119169
endloop
endfacet
facet normal -0.707106781186547 0.0 0.707106781186548
outer loop
vertex -22.3437377052492 8.40000150066315 29.4187365119169
vertex -24.1550011933323 5.40000150066316 27.6074730238338
vertex -22.3437377052492 5.40000150066316 29.4187365119169
endloop
endfacet
facet normal -0.707106781186547 0.0 0.707106781186548
outer loop
vertex -24.1550011933323 5.40000150066316 27.6074730238338
vertex -22.3437377052492 8.40000150066315 29.4187365119169
vertex -24.1550011933323 8.40000150066315 27.6074730238338
endloop
endfacet
facet normal 0.0 0.0 1.0
outer loop
vertex -24.1550011933323 8.40000150066315 27.6074730238338
vertex -27.0837377052492 5.40000150066316 27.6074730238338
vertex -24.1550011933323 5.40000150066316 27.6074730238338
endloop
endfacet
facet normal 0.0 0.0 1.0
outer loop
vertex -27.0837377052492 5.40000150066316 27.6074730238338
vertex -24.1550011933323 8.40000150066315 27.6074730238338
vertex -27.0837377052492 8.40000150066315 27.6074730238338
endloop
endfacet
facet normal -3.85185988877446e-32 -1.94289029309402e-16 -1.0
outer loop
vertex -7.99999999999999 -1.49999999999984 -1.50000000000001
vertex 1.15296661107322e-14 1.54393164919497e-13 -1.50000000000001
vertex 1.12798659301916e-14 -1.49999999999985 -1.50000000000001
endloop
endfacet
facet normal -3.85185988877446e-32 -1.94289029309402e-16 -1.0
outer loop
vertex 1.15296661107322e-14 1.54393164919497e-13 -1.50000000000001
vertex -7.99999999999999 -1.49999999999984 -1.50000000000001
vertex -7.99999999999999 1.55803148160771e-13 -1.50000000000001
endloop
endfacet
facet normal 3.85185988877446e-32 1.94289029309402e-16 1.0
outer loop
vertex -7.99999999999999 1.62148072746504e-13 31.23
vertex 1.12798659301916e-14 -1.49999999999984 31.23
vertex 1.15296661107323e-14 1.6073808950523e-13 31.23
endloop
endfacet
facet normal 3.85185988877446e-32 1.94289029309402e-16 1.0
outer loop
vertex 1.12798659301916e-14 -1.49999999999984 31.23
vertex -7.99999999999999 1.62148072746504e-13 31.23
vertex -7.99999999999999 -1.49999999999984 31.23
endloop
endfacet
facet normal -1.0 1.66533453693773e-16 6.16297582203907e-33
outer loop
vertex -7.99999999999999 1.62148072746504e-13 31.23
vertex -7.99999999999999 -1.49999999999984 -1.50000000000001
vertex -7.99999999999999 -1.49999999999984 31.23
endloop
endfacet
facet normal -1.0 1.66533453693773e-16 6.16297582203907e-33
outer loop
vertex -7.99999999999999 -1.49999999999984 -1.50000000000001
vertex -7.99999999999999 1.62148072746504e-13 31.23
vertex -7.99999999999999 1.55803148160771e-13 -1.50000000000001
endloop
endfacet
facet normal -1.66533453693773e-16 -1.0 1.94289029309402e-16
outer loop
vertex -7.99999999999999 -1.49999999999984 -1.50000000000001
vertex 1.12798659301916e-14 -1.49999999999984 31.23
vertex -7.99999999999999 -1.49999999999984 31.23
endloop
endfacet
facet normal -1.66533453693773e-16 -1.0 1.94289029309402e-16
outer loop
vertex 1.12798659301916e-14 -1.49999999999984 31.23
vertex -7.99999999999999 -1.49999999999984 -1.50000000000001
vertex 1.12798659301916e-14 -1.49999999999985 -1.50000000000001
endloop
endfacet
facet normal 1.0 -1.66533453693773e-16 -6.16297582203907e-33
outer loop
vertex 1.15296661107322e-14 1.54393164919497e-13 -1.50000000000001
vertex 1.12798659301916e-14 -1.49999999999984 31.23
vertex 1.12798659301916e-14 -1.49999999999985 -1.50000000000001
endloop
endfacet
facet normal 1.0 -1.66533453693773e-16 -6.16297582203907e-33
outer loop
vertex 1.12798659301916e-14 -1.49999999999984 31.23
vertex 1.15296661107322e-14 1.54393164919497e-13 -1.50000000000001
vertex 1.15296661107323e-14 1.6073808950523e-13 31.23
endloop
endfacet
facet normal 1.66533453693773e-16 1.0 -1.94289029309402e-16
outer loop
vertex 1.15296661107322e-14 1.54393164919497e-13 -1.50000000000001
vertex -7.99999999999999 1.62148072746504e-13 31.23
vertex 1.15296661107323e-14 1.6073808950523e-13 31.23
endloop
endfacet
facet normal 1.66533453693773e-16 1.0 -1.94289029309402e-16
outer loop
vertex -7.99999999999999 1.62148072746504e-13 31.23
vertex 1.15296661107322e-14 1.54393164919497e-13 -1.50000000000001
vertex -7.99999999999999 1.55803148160771e-13 -1.50000000000001
endloop
endfacet
endsolid RaspberryPi_SDCard_retainer
