solid RaspberryPi_SD_Slot_Plate
facet normal 2.08166817117217e-16 0.0 1.0
outer loop
vertex 11.1917417764375 127.598817285047 3.49720252756924e-15
vertex 27.9917417764375 99.1988172850469 0.0
vertex 27.9917417764375 127.598817285047 0.0
endloop
endfacet
facet normal 2.08166817117217e-16 0.0 1.0
outer loop
vertex 27.9917417764375 99.1988172850469 0.0
vertex 11.1917417764375 127.598817285047 3.49720252756924e-15
vertex 11.1917417764375 99.1988172850469 3.49720252756924e-15
endloop
endfacet
facet normal 1.0 0.0 -2.08166817117217e-16
outer loop
vertex 27.9917417764375 127.598817285047 -0.5
vertex 27.9917417764375 99.1988172850469 0.0
vertex 27.9917417764375 99.1988172850469 -0.5
endloop
endfacet
facet normal 1.0 0.0 -2.08166817117217e-16
outer loop
vertex 27.9917417764375 99.1988172850469 0.0
vertex 27.9917417764375 127.598817285047 -0.5
vertex 27.9917417764375 127.598817285047 0.0
endloop
endfacet
facet normal 0.0 1.0 0.0
outer loop
vertex 27.9917417764375 127.598817285047 -0.5
vertex 11.1917417764375 127.598817285047 3.49720252756924e-15
vertex 27.9917417764375 127.598817285047 0.0
endloop
endfacet
facet normal 0.0 1.0 0.0
outer loop
vertex 11.1917417764375 127.598817285047 3.49720252756924e-15
vertex 27.9917417764375 127.598817285047 -0.5
vertex 11.1917417764375 127.598817285047 -0.499999999999996
endloop
endfacet
facet normal -1.0 0.0 2.08166817117217e-16
outer loop
vertex 11.1917417764375 127.598817285047 3.49720252756924e-15
vertex 11.1917417764375 99.1988172850469 -0.499999999999996
vertex 11.1917417764375 99.1988172850469 3.49720252756924e-15
endloop
endfacet
facet normal -1.0 0.0 2.08166817117217e-16
outer loop
vertex 11.1917417764375 99.1988172850469 -0.499999999999996
vertex 11.1917417764375 127.598817285047 3.49720252756924e-15
vertex 11.1917417764375 127.598817285047 -0.499999999999996
endloop
endfacet
facet normal 0.0 -1.0 0.0
outer loop
vertex 11.1917417764375 99.1988172850469 -0.499999999999996
vertex 27.9917417764375 99.1988172850469 0.0
vertex 11.1917417764375 99.1988172850469 3.49720252756924e-15
endloop
endfacet
facet normal 0.0 -1.0 0.0
outer loop
vertex 27.9917417764375 99.1988172850469 0.0
vertex 11.1917417764375 99.1988172850469 -0.499999999999996
vertex 27.9917417764375 99.1988172850469 -0.5
endloop
endfacet
facet normal -2.08166817117217e-16 0.0 -1.0
outer loop
vertex 11.1917417764375 99.1988172850469 -0.499999999999996
vertex 27.9917417764375 127.598817285047 -0.5
vertex 27.9917417764375 99.1988172850469 -0.5
endloop
endfacet
facet normal -2.08166817117217e-16 0.0 -1.0
outer loop
vertex 27.9917417764375 127.598817285047 -0.5
vertex 11.1917417764375 99.1988172850469 -0.499999999999996
vertex 11.1917417764375 127.598817285047 -0.499999999999996
endloop
endfacet
facet normal -4.85722573273506e-17 0.0 1.0
outer loop
vertex 24.9917417764375 119.698817285047 0.400000000000008
vertex 11.1917417764375 102.498817285047 0.400000000000007
vertex 24.9917417764375 102.498817285047 0.400000000000008
endloop
endfacet
facet normal -4.85722573273506e-17 0.0 1.0
outer loop
vertex 11.1917417764375 102.498817285047 0.400000000000007
vertex 24.9917417764375 119.698817285047 0.400000000000008
vertex 20.0917417764375 124.298817285047 0.400000000000008
endloop
endfacet
facet normal -4.85722573273506e-17 0.0 1.0
outer loop
vertex 11.1917417764375 102.498817285047 0.400000000000007
vertex 20.0917417764375 124.298817285047 0.400000000000008
vertex 11.1917417764375 124.298817285047 0.400000000000007
endloop
endfacet
facet normal 1.0 1.59320140256943e-16 4.85722573273506e-17
outer loop
vertex 24.9917417764375 119.698817285047 7.75490782700672e-15
vertex 24.9917417764375 102.498817285047 0.400000000000008
vertex 24.9917417764375 102.498817285047 7.75490782700672e-15
endloop
endfacet
facet normal 1.0 1.59320140256943e-16 4.85722573273506e-17
outer loop
vertex 24.9917417764375 102.498817285047 0.400000000000008
vertex 24.9917417764375 119.698817285047 7.75490782700672e-15
vertex 24.9917417764375 119.698817285047 0.400000000000008
endloop
endfacet
facet normal 0.68443590841633 0.729073032878266 3.32445970676769e-17
outer loop
vertex 24.9917417764375 119.698817285047 7.75490782700672e-15
vertex 20.0917417764375 124.298817285047 0.400000000000008
vertex 24.9917417764375 119.698817285047 0.400000000000008
endloop
endfacet
facet normal 0.68443590841633 0.729073032878266 3.32445970676769e-17
outer loop
vertex 20.0917417764375 124.298817285047 0.400000000000008
vertex 24.9917417764375 119.698817285047 7.75490782700672e-15
vertex 20.0917417764375 124.298817285047 7.49053596926785e-15
endloop
endfacet
facet normal -1.0 0.0 -4.85722573273506e-17
outer loop
vertex 11.1917417764375 124.298817285047 0.400000000000007
vertex 11.1917417764375 102.498817285047 7.04991620636974e-15
vertex 11.1917417764375 102.498817285047 0.400000000000007
endloop
endfacet
facet normal -1.0 0.0 -4.85722573273506e-17
outer loop
vertex 11.1917417764375 102.498817285047 7.04991620636974e-15
vertex 11.1917417764375 124.298817285047 0.400000000000007
vertex 11.1917417764375 124.298817285047 7.04991620636974e-15
endloop
endfacet
facet normal 4.85722573273506e-17 0.0 -1.0
outer loop
vertex 11.1917417764375 102.498817285047 7.04991620636974e-15
vertex 24.9917417764375 119.698817285047 7.75490782700672e-15
vertex 24.9917417764375 102.498817285047 7.75490782700672e-15
endloop
endfacet
facet normal 4.85722573273506e-17 0.0 -1.0
outer loop
vertex 24.9917417764375 119.698817285047 7.75490782700672e-15
vertex 11.1917417764375 102.498817285047 7.04991620636974e-15
vertex 20.0917417764375 124.298817285047 7.49053596926785e-15
endloop
endfacet
facet normal 4.85722573273506e-17 0.0 -1.0
outer loop
vertex 20.0917417764375 124.298817285047 7.49053596926785e-15
vertex 11.1917417764375 102.498817285047 7.04991620636974e-15
vertex 11.1917417764375 124.298817285047 7.04991620636974e-15
endloop
endfacet
facet normal 0.0 1.0 0.0
outer loop
vertex 20.0917417764375 124.298817285047 7.49053596926785e-15
vertex 11.1917417764375 124.298817285047 0.400000000000007
vertex 20.0917417764375 124.298817285047 0.400000000000008
endloop
endfacet
facet normal 0.0 1.0 0.0
outer loop
vertex 11.1917417764375 124.298817285047 0.400000000000007
vertex 20.0917417764375 124.298817285047 7.49053596926785e-15
vertex 11.1917417764375 124.298817285047 7.04991620636974e-15
endloop
endfacet
facet normal 0.0 -1.0 0.0
outer loop
vertex 11.1917417764375 102.498817285047 7.04991620636974e-15
vertex 24.9917417764375 102.498817285047 0.400000000000008
vertex 11.1917417764375 102.498817285047 0.400000000000007
endloop
endfacet
facet normal 0.0 -1.0 0.0
outer loop
vertex 24.9917417764375 102.498817285047 0.400000000000008
vertex 11.1917417764375 102.498817285047 7.04991620636974e-15
vertex 24.9917417764375 102.498817285047 7.75490782700672e-15
endloop
endfacet
endsolid RaspberryPi_SD_Slot_Plate
